# xmcd
#
# Track frame offsets:
#	150
#	18262
#	30482
#	46445
#	54875
#	62287
#	71582
#	83795
#	94245
#	105295
#
# Disc length: 1620 seconds
#
# Revision: 0
# Processed by: cddbd v1.4PL0 Copyright (c) Steve Scherf et al.
# Submitted via: dBpowerAMP V4.0
#
DISCID=6d06520a
DTITLE=Peanuts - Snoopy's Classiks on toys~Country
DYEAR=1995
DGENRE=country
TTITLE0=Any man of mine
TTITLE1=Achy breaky heart
TTITLE2=Friends in low places
TTITLE3=Hey hey good looking
TTITLE4=Thanks god I'm a country girl
TTITLE5=King of the road
TTITLE6=Crazy
TTITLE7=Grundy county auction
TTITLE8=Orange blossom
TTITLE9=Mamas, don't let your babies grow up to be cowboys
EXTD=
EXTT0=
EXTT1=
EXTT2=
EXTT3=
EXTT4=
EXTT5=
EXTT6=
EXTT7=
EXTT8=
EXTT9=
PLAYORDER=
